<?xml version="1.0" encoding="utf-8"?>
<!-- Generator: Adobe Illustrator 21.0.0, SVG Export Plug-In . SVG Version: 6.00 Build 0)  -->
<svg version="1.1" id="Layer_1" xmlns="http://www.w3.org/2000/svg" xmlns:xlink="http://www.w3.org/1999/xlink" x="0px" y="0px"
	 viewBox="0 0 200 200" style="enable-background:new 0 0 200 200;" xml:space="preserve">
<style type="text/css">
	.st0{fill:#FCF1D4;}
	.st1{fill:#C2AEBD;}
	.st2{fill:#ED4D2E;}
	.st3{fill:#F7F3F4;}
	.st4{fill:#54284E;}
	.st5{fill:#AD94A7;}
	.st6{fill:#350734;}
</style>
<g>
	<polyline class="st0" points="77.1,184 158,184 158,196.8 42,196.8 42,184 66.6,184 	"/>
	<path class="st1" d="M158,113.3V89L191,75.9l-10.9-44.8c0,0-2.3-9.3-11.3-13.2C160.4,14.3,130.3,3,130.3,3H100H69.7
		c0,0-30,11.3-38.5,14.9c-9.1,3.9-11.3,13.2-11.3,13.2L9,75.9L42,89v107.8h58h58v-73"/>
	<path class="st2" d="M100.2,38c15.6,0,30.6-15,30.6-35H69.7C69.7,23,84.6,38,100.2,38z"/>
	<path class="st3" d="M69.7,3c0,20,14.9,35,30.6,35c15.6,0,30.6-15,30.6-35H69.7z"/>
	<path class="st1" d="M110.7,1.8c0,16.2-9.8,29.2-21.9,33.5c2.8,1,5.7,1.5,8.7,1.5c15.6,0,30.6-15,30.6-35L110.7,1.8z"/>
	<path class="st3" d="M19.8,31.1c0,0,1.1-4.6,4.9-8.7L42,51v38L9,75.9L19.8,31.1z"/>
	<polygon class="st1" points="30.3,69.9 30.3,73.8 30.3,81.6 38.8,88.9 38.8,73.8 38.8,69.9 38.8,50.9 30.3,37 	"/>
	<path class="st3" d="M180.2,31.1c0,0-1.1-4.6-4.9-8.7L158,51v38L191,75.9L180.2,31.1z"/>
	<polygon class="st1" points="169.5,69.9 169.5,73.8 169.5,81.6 161,88.9 161,73.8 161,69.9 161,50.9 169.5,37 	"/>
	<polygon class="st4" points="12.1,62.9 42,75.5 42,89 9,75.9 	"/>
	<polygon class="st5" points="30.3,73.8 30.3,85.6 38.8,88.9 38.8,75.4 30.3,71.8 	"/>
	<polygon class="st4" points="187.9,62.9 158,75.5 158,89 191,75.9 	"/>
	<polygon class="st5" points="169.5,73.8 169.5,85.6 161,88.9 161,75.4 169.5,71.8 	"/>
	<path class="st6" d="M92,17h16.3c1.7,0,3.2-1.4,3.2-3.2s-1.4-3.2-3.2-3.2H92c-1.7,0-3.2,1.4-3.2,3.2S90.2,17,92,17z"/>
	<path class="st6" d="M194.1,75.2l-10.9-44.8c-0.1-0.4-2.8-10.9-13.2-15.3c-7.5-3.2-31.3-12.2-37.3-14.5c-0.5-0.4-1.2-0.7-2-0.7
		h-0.5H69.7c-0.1,0-0.2,0-0.3,0c0,0-0.1,0-0.1,0c-0.1,0-0.1,0-0.2,0c-0.1,0-0.1,0-0.2,0c0,0-0.1,0-0.1,0c-0.1,0-0.1,0-0.2,0.1
		c0,0-0.1,0-0.1,0c-1.2,0.5-30.2,11.4-38.6,15c-10,4.2-12.8,14.1-13.1,15.2l0,0c0,0,0,0,0,0.1c0,0,0,0,0,0L9,62.2v0l-3.1,13
		c-0.4,1.5,0.4,3.1,1.9,3.7l31.1,12.3V184v12.8c0,1.7,1.4,3.2,3.2,3.2H158c1.7,0,3.2-1.4,3.2-3.2V184v-60.2c0-1.7-1.4-3.2-3.2-3.2
		s-3.2,1.4-3.2,3.2v57H77.1c-1.7,0-3.2,1.4-3.2,3.2c0,1.7,1.4,3.2,3.2,3.2h77.7v6.5H45.2v-6.5h21.4c1.7,0,3.2-1.4,3.2-3.2
		c0-1.7-1.4-3.2-3.2-3.2H45.2V89V75.5V51c0-0.6-0.2-1.1-0.5-1.6L28.8,23c1-0.8,2.2-1.6,3.6-2.2c6.5-2.8,25.9-10.2,34.3-13.4
		c2,18.7,16.5,33.7,33.5,33.7c16.9,0,31.4-14.9,33.5-33.5c8.7,3.3,27.5,10.5,33.9,13.2c1.4,0.6,2.6,1.3,3.6,2.2l-15.9,26.4
		c-0.3,0.5-0.5,1.1-0.5,1.6v24.5V89v24.2c0,1.7,1.4,3.2,3.2,3.2c1.7,0,3.2-1.4,3.2-3.2V91.2l31.1-12.3
		C193.7,78.3,194.5,76.7,194.1,75.2z M14.3,67.3l24.6,10.3v6.8L12.7,74L14.3,67.3z M38.9,70.7l-23-9.7l7.1-29.2c0,0,0-0.1,0.1-0.2
		l0,0c0.2-0.5,0.6-1.9,1.5-3.5l14.4,23.7V70.7z M100.2,34.9c-12.5,0-25.8-11.4-27.3-28.7h54.6C126,23.5,112.7,34.9,100.2,34.9z
		 M161.1,84.4v-6.8l24.6-10.3l1.6,6.7L161.1,84.4z M175.5,28.1c0.8,1.3,1.2,2.5,1.4,3.2c0,0,0,0,0,0c0,0.1,0,0.1,0.1,0.2
		c0,0,0,0,0,0c0,0,0,0.1,0,0.1l0,0c0,0,0,0.1,0,0.1c0,0,0,0,0,0c0,0,0,0,0,0c0,0,0,0,0,0c0,0,0,0,0,0l7.1,29.2l-23,9.7V51.9
		L175.5,28.1z"/>
</g>
</svg>
