<?xml version="1.0" encoding="utf-8"?>
<!-- Generator: Adobe Illustrator 21.0.0, SVG Export Plug-In . SVG Version: 6.00 Build 0)  -->
<svg version="1.1" id="Layer_1" xmlns="http://www.w3.org/2000/svg" xmlns:xlink="http://www.w3.org/1999/xlink" x="0px" y="0px"
	 viewBox="0 0 200 200" style="enable-background:new 0 0 200 200;" xml:space="preserve">
<style type="text/css">
	.st0{fill:#C2AEBD;}
	.st1{fill:#54284E;}
	.st2{fill:#AD94A7;}
	.st3{fill:#350734;}
</style>
<g>
	<polyline class="st0" points="144,91.2 147.4,20.8 100,20.8 52.6,20.8 61.3,196.8 91.8,196.8 100,66.8 108.2,196.8 138.7,196.8 
		143.4,102.2 	"/>
	<g>
		<path class="st1" d="M146.3,44.2c-26.7,0-24.3-23.3-24.3-23.3h25.4L146.3,44.2z"/>
		<path class="st1" d="M53.7,44.2c26.7,0,24.7-23.3,24.7-23.3H52.6L53.7,44.2z"/>
	</g>
	<polygon class="st1" points="100,22 100,56.2 111.4,50.4 111.4,22 	"/>
	<path class="st2" d="M141.6,3.2H58.4c-3.2,0-5.8,2.6-5.8,5.8V11v2.1v7.7h5.8h83.3h5.8v-7.7V11V9C147.4,5.8,144.8,3.2,141.6,3.2z"/>
	<path class="st2" d="M147.4,11V9c0-3.2-2.6-5.8-5.8-5.8h-45v17.7h45h5.8v-7.7V11z"/>
	<path class="st2" d="M65.1,31.5l-0.5-10.7v-3.4l-6.8,2.6c-1.2,0.5-2,1.6-1.9,2.9l0.3,5.8l0.1,2.7l8,162.5c0.1,1.6,1.4,2.8,3,2.8
		h8.8c-1.6,0-2.9-1.2-3-2.8"/>
	<path class="st1" d="M56.4,35l0.5,9.1c3.4,0,6.3-0.4,8.8-1l-0.6-11.7l-0.5-10.7h-8.8l0.5,10.7L56.4,35z"/>
	<path class="st3" d="M105.7,15.2c0.8,0,1.7-0.3,2.2-0.9c0.6-0.6,0.9-1.4,0.9-2.2c0-0.8-0.3-1.7-0.9-2.2c-0.6-0.6-1.4-0.9-2.2-0.9
		c-0.8,0-1.7,0.3-2.2,0.9c-0.6,0.6-0.9,1.4-0.9,2.2c0,0.8,0.3,1.7,0.9,2.2C104,14.8,104.8,15.2,105.7,15.2z"/>
	<path class="st3" d="M150.6,9c0-5-4-9-9-9h-45H58.4c-5,0-9,4-9,9v11.9c0,0,0,0.1,0,0.1c0,0,0,0.1,0,0.1l8.7,176
		c0.1,1.7,1.5,3,3.2,3h30.5c1.7,0,3.1-1.3,3.2-3l5.1-79.9l5.1,79.9c0.1,1.7,1.5,3,3.2,3h30.5c1.7,0,3.1-1.3,3.2-3l4.7-94.6
		c0.1-1.8-1.3-3.2-3-3.3c-1.8-0.1-3.2,1.3-3.3,3l-4.5,91.6h-24.5l-8-126.9v-8.6l9.6-4.9c1.1-0.5,1.7-1.6,1.7-2.8V24h4.3
		c0.2,3.8,1.4,10.1,6,15.3c4.2,4.7,10.3,7.3,18.1,7.9L140.8,91c-0.1,1.8,1.3,3.2,3,3.3c1.8,0.1,3.2-1.3,3.3-3l2.3-47l0,0l1.2-23.3
		c0,0,0-0.1,0-0.1c0,0,0-0.1,0-0.1L150.6,9L150.6,9z M144.3,9v8.7h-15.7V6.4h13C143.1,6.4,144.3,7.5,144.3,9z M122.2,6.4v11.3H122
		H99.8V6.4H122.2z M78.4,17.7h-0.6V6.4h15.7v11.3H78.4z M55.9,24h19.2c-0.3,2.9-1.3,7.5-4.6,11.1c-3.1,3.4-7.8,5.3-13.8,5.8L55.9,24
		z M55.7,9c0-1.5,1.2-2.6,2.6-2.6h13v11.3H55.7L55.7,9L55.7,9z M88.8,193.6H64.3L57,47.2c7.8-0.6,13.9-3.2,18.2-7.9
		c4.7-5.2,6-11.5,6.2-15.3h15.1h0.2v32.2v10.5L88.8,193.6z M108.2,48.5l-5,2.5V25.1h5V48.5z M129.6,35.1c-3.3-3.6-4.2-8.2-4.4-11.1
		h18.9l-0.8,16.9C137.2,40.4,132.7,38.5,129.6,35.1z"/>
</g>
</svg>
