<?xml version="1.0" encoding="utf-8"?>
<!-- Generator: Adobe Illustrator 21.0.0, SVG Export Plug-In . SVG Version: 6.00 Build 0)  -->
<svg version="1.1" id="Layer_1" xmlns="http://www.w3.org/2000/svg" xmlns:xlink="http://www.w3.org/1999/xlink" x="0px" y="0px"
	 viewBox="0 0 200 200" style="enable-background:new 0 0 200 200;" xml:space="preserve">
<style type="text/css">
	.st0{fill:#54284E;}
	.st1{fill:#C2AEBD;}
	.st2{fill:#F7F3F4;}
	.st3{fill:#350734;}
</style>
<g>
	<polygon class="st0" points="66.8,3 133.6,3 100.2,37.5 	"/>
	<polygon class="st1" points="80.8,17.5 119.6,17.5 133.6,3 66.8,3 	"/>
	<path class="st1" d="M111.1,2H62l14,14.5h27.4C107.2,12.5,109.9,7.6,111.1,2z"/>
	<path class="st1" d="M177.9,95.2c0-18.2,0-35.9,0-42.8c0-19.5-36.2-29.3-36.2-29.3L100,44.7L58.3,23.1c0,0-36.2,9.8-36.2,29.3
		c0,19.5,0,114.2,0,114.2l23.1,6.3v10.7h5.8v13.7H100h0h49.1v-13.7h5.8v-10.7l23.1-6.3c0,0,0-30.7,0-60.7"/>
	<g>
		<rect x="112.8" y="127.6" class="st2" width="29.1" height="44.4"/>
		<rect x="57.9" y="127.6" class="st2" width="29.1" height="44.4"/>
	</g>
	<g>
		<path class="st2" d="M57.9,138.5c0,2.8,2.3,5.1,5.1,5.1h19c2.8,0,5.1-2.3,5.1-5.1v-10.9H57.9V138.5z"/>
		<path class="st2" d="M112.8,138.5c0,2.8,2.3,5.1,5.1,5.1h19c2.8,0,5.1-2.3,5.1-5.1v-10.9h-29.1V138.5z"/>
	</g>
	<g>
		<rect x="50.9" y="183.6" class="st2" width="98.1" height="13.7"/>
		<path class="st2" d="M100,44.7l41.7-21.6c0,0,6,1.6,13.1,4.8l0,0c-7.1-21.4-21.3-25-21.3-25L95.4,42.4v0L100,44.7z"/>
		<path class="st2" d="M58.3,23.1l37.2,19.2v0l4.8-4.9L66.8,3c0,0-14.1,3.6-21.2,24.8C52.5,24.7,58.3,23.1,58.3,23.1z"/>
	</g>
	<g>
		<circle class="st2" cx="80.5" cy="74.9" r="5.3"/>
		<circle class="st2" cx="120.4" cy="74.9" r="5.3"/>
	</g>
	<g>
		<path class="st0" d="M25.1,41.9c-2.4,2.8-3.8,5.9-4,9.1c0,0.2,0,0.3,0,0.5c0,7.1,0,24.5,0,43.3c0,3.6,0,7.2,0,10.8
			c0,30.1,0,60.9,0,60.9l24,6.3v10.7l0,0h0.4V71.2C45.6,71.2,46.8,50.6,25.1,41.9z"/>
		<path class="st0" d="M174,44.2c2.4,2.8,3.8,5.8,4,9c0,0.2,0,0.3,0,0.5c0,7,0,24.1,0,42.6c0,3.5,0,7.1,0,10.6c0,29.6,0,59.8,0,59.8
			l-24,6.2v10.6h0h-0.4V73.1C153.6,73.1,152.4,52.8,174,44.2z"/>
	</g>
	<g>
		<path class="st0" d="M62.6,193.3V183v0h-8.7v0v10.3c0,1.9,1.5,3.4,3.4,3.4h8.7C64.1,196.7,62.6,195.2,62.6,193.3z"/>
		<path class="st0" d="M166.3,171.6v-4.1V70.7c0,0-0.1-1,0-2.6v-3.8c0,0-0.9-9.3,5.4-16.8c-15.7,7-14.1,23.2-14.1,23.2V174
			L166.3,171.6z"/>
	</g>
	<g>
		<path class="st0" d="M69.4,166.4v-34.3c0-2.8,2.3-5.1,5.1-5.1h-8.7c-2.8,0-5.1,2.3-5.1,5.1v34.3c0,2.8,2.3,5.1,5.1,5.1h8.7
			C71.6,171.5,69.4,169.2,69.4,166.4z"/>
		<path class="st0" d="M124.3,166.8v-34.3c0-2.8,2.3-5.1,5.1-5.1h-8.7c-2.8,0-5.1,2.3-5.1,5.1v34.3c0,2.8,2.3,5.1,5.1,5.1h8.7
			C126.6,171.9,124.3,169.6,124.3,166.8z"/>
	</g>
	<g>
		<path class="st0" d="M124.3,138.4v-5.8c0-2.8,2.3-5.1,5.1-5.1h-8.7c-2.8,0-5.1,2.3-5.1,5.1v5.8c0,2.8,2.3,5.1,5.1,5.1h8.7
			C126.6,143.5,124.3,141.2,124.3,138.4z"/>
		<path class="st0" d="M69.4,138v-5.8c0-2.8,2.3-5.1,5.1-5.1h-8.7c-2.8,0-5.1,2.3-5.1,5.1v5.8c0,2.8,2.3,5.1,5.1,5.1h8.7
			C71.6,143,69.4,140.8,69.4,138z"/>
	</g>
	<path class="st0" d="M33.8,171.6v-4.1V70.7c0,0,0.1-1,0-2.6v-3.8c0,0,0.9-9.3-5.4-16.8c15.7,7,14.1,23.2,14.1,23.2V174L33.8,171.6z
		"/>
	<path class="st3" d="M90.2,172v-33.5v-10.9c0-1.7-1.4-3.2-3.2-3.2H57.9c-1.7,0-3.2,1.4-3.2,3.2v10.9V172c0,1.7,1.4,3.2,3.2,3.2H87
		C88.8,175.2,90.2,173.8,90.2,172z M61.1,130.8h22.8v7.7c0,1-0.9,1.9-1.9,1.9H63c-1,0-1.9-0.9-1.9-1.9V130.8z M61.1,168.9v-22.3
		c0.6,0.1,1.2,0.2,1.9,0.2h19c0.7,0,1.3-0.1,1.9-0.2v22.3H61.1z"/>
	<path class="st3" d="M142,124.5h-29.1c-1.7,0-3.2,1.4-3.2,3.2v10.9V172c0,1.7,1.4,3.2,3.2,3.2H142c1.7,0,3.2-1.4,3.2-3.2v-33.5
		v-10.9C145.1,125.9,143.7,124.5,142,124.5z M116,130.8h22.8v7.7c0,1-0.9,1.9-1.9,1.9h-19c-1,0-1.9-0.9-1.9-1.9V130.8z M116,168.9
		v-22.3c0.6,0.1,1.2,0.2,1.9,0.2h19c0.7,0,1.3-0.1,1.9-0.2v22.3H116z"/>
	<path class="st3" d="M177.9,98.3c1.7,0,3.2-1.4,3.2-3.2V52.4c0-4.3-1.4-8.1-3.8-11.5c-0.1-0.2-0.3-0.4-0.4-0.6
		c-4.7-6.4-12.5-11.3-19.5-14.6C149.7,4,135,0.1,134.4-0.1c-0.1,0-0.1,0-0.2,0c-0.1,0-0.1,0-0.2,0c-0.1,0-0.2,0-0.3,0
		c0,0-0.1,0-0.1,0H66.8c0,0,0,0,0,0h0c0,0-0.1,0-0.1,0c-0.1,0-0.2,0-0.3,0c-0.1,0-0.1,0-0.2,0c-0.1,0-0.1,0-0.2,0
		C65.4,0.1,50.7,4,43,25.5c-11,5.1-24.2,14-24.2,26.9v114.2c0,1.4,1,2.7,2.3,3.1l20.8,5.6v8.3c0,1.7,1.4,3.2,3.2,3.2h2.6v10.5
		c0,1.7,1.4,3.2,3.2,3.2h98.1c1.7,0,3.2-1.4,3.2-3.2v-10.5h2.6c1.7,0,3.2-1.4,3.2-3.2v-8.3l20.8-5.6c1.4-0.4,2.3-1.6,2.3-3.1v-60.7
		c0-1.7-1.4-3.2-3.2-3.2c-1.7,0-3.2,1.4-3.2,3.2v58.3l-16.8,4.5V71.7c0-0.1,0-0.1,0-0.2c0-0.7-0.6-16.9,15.3-25.1
		c1,1.9,1.5,3.9,1.5,6v42.8C174.8,96.9,176.2,98.3,177.9,98.3z M88.3,20.6h23.8l-11.9,12.3L88.3,20.6z M122.4,10l-4.1,4.3H82.2
		l-3.4-3.5l-4.5-4.6h51.9L122.4,10z M149.1,22.2c-3.4-1.3-5.9-1.9-6.5-2.1c0,0-0.1,0-0.1,0c-0.8-0.2-1.6-0.1-2.3,0.2l-16.9,8.7
		c-0.4-1.2-1.6-2.1-3-2.1c-1.7,0-3.2,1.4-3.2,3.2v2.1L102,40.1l0.4-0.5l19.4-20l0,0l7.9-8.1l4.7-4.9C137.4,8,144,12,149.1,22.2z
		 M65.9,6.6l29.8,30.8L95.2,38l-0.4,0.5l-11.1-5.8v-2.6c0-1.7-1.4-3.2-3.2-3.2c-1.5,0-2.8,1.1-3.1,2.5l-17.7-9.1
		c-0.1-0.1-0.2-0.1-0.3-0.1c0,0-0.1,0-0.1,0c-0.1,0-0.2-0.1-0.2-0.1c0,0-0.1,0-0.1,0c-0.1,0-0.2,0-0.3,0c0,0,0,0-0.1,0
		c-0.1,0-0.2,0-0.3,0c0,0,0,0,0,0c0,0,0,0,0,0c-0.1,0-0.2,0-0.3,0c0,0-0.1,0-0.1,0c-0.1,0-0.2,0-0.4,0.1c-0.4,0.1-2.7,0.7-6.1,2
		C56.4,11.9,62.9,8,65.9,6.6z M25.2,164.2V52.4c0-2.1,0.6-4.2,1.6-6.1c16.2,8.1,15.6,24.5,15.6,25.2c0,0.1,0,0.1,0,0.2v97.2
		L25.2,164.2z M145.9,194.1H54.1v-7.3h10.2c1.7,0,3.2-1.4,3.2-3.2s-1.4-3.2-3.2-3.2H50.9h-2.2V71.7c0-0.8,0.1-6.2-2.2-12.6
		c-2.1-5.6-6.5-13-15.9-18c4.2-4.3,10.3-7.8,16.1-10.4c0.1,0,0.1,0,0.2-0.1c4.8-2.2,9.1-3.5,11.1-4.1l19.4,10v30.5
		c-3.1,1.3-5.3,4.3-5.3,7.8c0,3.5,2.2,6.6,5.3,7.8v6.5c0,1.7,1.4,3.2,3.2,3.2s3.2-1.4,3.2-3.2v-6.5c3.1-1.3,5.3-4.3,5.3-7.8
		c0-3.5-2.2-6.6-5.3-7.8V39.8l13.2,6.8v133.7H74.6c-1.7,0-3.2,1.4-3.2,3.2c0,1.7,1.4,3.2,3.2,3.2h71.2L145.9,194.1L145.9,194.1z
		 M80.5,77c-1.2,0-2.1-0.9-2.1-2.1c0-1.2,0.9-2.1,2.1-2.1s2.1,0.9,2.1,2.1C82.6,76.1,81.7,77,80.5,77z M153.9,59.2
		c-2.4,6.4-2.3,11.7-2.2,12.6v101.1v7.5h-2.6h-45.9V46.7l14.1-7.3v27.7c-3.1,1.3-5.3,4.3-5.3,7.8c0,3.5,2.2,6.6,5.3,7.8v6.5
		c0,1.7,1.4,3.2,3.2,3.2s3.2-1.4,3.2-3.2v-6.5c3.1-1.3,5.3-4.3,5.3-7.8c0-3.5-2.2-6.6-5.3-7.8v-31l18.5-9.6c2,0.6,6.5,2.1,11.5,4.3
		c0.1,0,0.1,0,0.2,0.1c5.7,2.6,11.6,6.1,15.8,10.4C160.3,46.3,156,53.6,153.9,59.2z M120.4,77c-1.2,0-2.1-0.9-2.1-2.1
		c0-1.2,0.9-2.1,2.1-2.1c1.2,0,2.1,0.9,2.1,2.1C122.5,76.1,121.6,77,120.4,77z"/>
</g>
</svg>
