<?xml version="1.0" encoding="utf-8"?>
<!-- Generator: Adobe Illustrator 21.0.0, SVG Export Plug-In . SVG Version: 6.00 Build 0)  -->
<svg version="1.1" id="Layer_1" xmlns="http://www.w3.org/2000/svg" xmlns:xlink="http://www.w3.org/1999/xlink" x="0px" y="0px"
	 viewBox="0 0 200 200" style="enable-background:new 0 0 200 200;" xml:space="preserve">
<style type="text/css">
	.st0{fill:#C63320;}
	.st1{fill:#C2AEBD;}
	.st2{fill:#F7F3F4;}
	.st3{fill:#AD94A7;}
	.st4{fill:#350734;}
</style>
<g>
	<g>
		<path class="st0" d="M117.6,5.2L117.6,5.2c0,0,0,0.1,0,0.1C117.6,5.3,117.6,5.2,117.6,5.2z"/>
		<path class="st0" d="M82.4,5.2L82.4,5.2c0,0,0,0,0,0.1C82.4,5.3,82.4,5.3,82.4,5.2z"/>
	</g>
	<path class="st1" d="M61,14L61,14c0,0-6.6,4.1-10.6,22.9c-4,18.8-15.1,87.6-15.1,87.6l20.7,4.6l12.8-53.3C64,47.8,55.6,21.4,61,14z
		"/>
	<path class="st2" d="M55.9,129.2l-20.7-4.6c0,0,0.9-5.4,2.2-13.5l21.7,4.8L55.9,129.2z"/>
	<path class="st1" d="M90.7,197.2h9.3h30.5c0,0,10.2-31.9,0-72.1c-10.2-40.2,19.9-105.4,6.9-112.4c-12.9-6.9-16.5-7.4-19.9-7.4
		c0,0,0,0,0,0c0,0.1,0,0.2,0,0.2c0,2.9-7.9,5.3-17.6,5.3S82.4,8.4,82.4,5.5c0-0.1,0-0.2,0-0.2c0,0,0,0,0,0c-3.4,0-6.9,0.5-19.9,7.4
		C49.6,19.6,79.7,84.8,69.5,125c-10.2,40.2,0,72.1,0,72.1h10.3"/>
	<path class="st1" d="M100,10.8c-9.2,0-16.7-2.1-17.5-4.8C83,9.9,85.9,28.9,100,35.8c14.1-6.9,17-25.9,17.5-29.8
		C116.7,8.7,109.2,10.8,100,10.8z"/>
	<path class="st1" d="M152.3,50.7c4.9,26.9,12.5,73.8,12.5,73.8l-20.7,4.6l-12.8-53.3C136,47.8,144.4,21.4,139,14l0,0
		c0,0,6.6,4.1,10.6,23c0.2,1,0.4,2.1,0.7,3.4"/>
	<path class="st2" d="M144.1,129.2l20.7-4.6c0,0-0.9-5.4-2.2-13.5l-21.7,4.8L144.1,129.2z"/>
	<path class="st3" d="M61.8,36.9c0.2-1.1,0.4-2.1,0.6-3c0.3-1.5,0.7-3,1-4.3c-0.8-6.3-1.1-11.6-0.3-15.2c-0.2,0.1-0.3,0.2-0.5,0.4
		c-2.3,2.4-6.5,8.3-9.3,21.8c-0.1,0.3-0.2,0.7-0.2,1.1c-0.2,0.8-0.3,1.6-0.5,2.5c0,0,0,0.1,0,0.1c0,0.2-0.1,0.5-0.1,0.7
		c0,0.1,0,0.1,0,0.2c0,0.2-0.1,0.4-0.1,0.6c0,0.1,0,0.2-0.1,0.3c0,0.2-0.1,0.4-0.1,0.6c0,0.1,0,0.2-0.1,0.3c0,0.2-0.1,0.4-0.1,0.5
		c0,0.1,0,0.3-0.1,0.4c0,0.2-0.1,0.4-0.1,0.5c0,0.1,0,0.3-0.1,0.4c0,0.2-0.1,0.4-0.1,0.5c0,0.1-0.1,0.3-0.1,0.4
		c0,0.2-0.1,0.4-0.1,0.6c0,0.1,0,0.3-0.1,0.4c0,0.2-0.1,0.4-0.1,0.6c0,0.1-0.1,0.3-0.1,0.4c0,0.2-0.1,0.4-0.1,0.6
		c0,0.2-0.1,0.3-0.1,0.5c0,0.2-0.1,0.4-0.1,0.5c0,0.2-0.1,0.3-0.1,0.5c0,0.2-0.1,0.5-0.1,0.7c0,0.1,0,0.2-0.1,0.3
		c0,0.3-0.1,0.5-0.1,0.8c0,0.1,0,0.3-0.1,0.4c0,0.2-0.1,0.5-0.1,0.7c0,0.1,0,0.3-0.1,0.4c-0.1,0.7-0.3,1.5-0.4,2.3
		c0,0.1,0,0.2-0.1,0.4c0,0.3-0.1,0.5-0.1,0.8c0,0.2-0.1,0.3-0.1,0.5c0,0.2-0.1,0.4-0.1,0.6c0,0.2-0.1,0.4-0.1,0.6
		c0,0.2-0.1,0.4-0.1,0.6c0,0.2-0.1,0.4-0.1,0.6c0,0.2-0.1,0.4-0.1,0.6c0,0.2-0.1,0.4-0.1,0.6c0,0.2-0.1,0.4-0.1,0.5
		c0,0.2-0.1,0.4-0.1,0.7c0,0.2-0.1,0.4-0.1,0.6c0,0.2-0.1,0.4-0.1,0.6c0,0.2-0.1,0.5-0.1,0.7c0,0.2-0.1,0.4-0.1,0.6
		c0,0.2-0.1,0.4-0.1,0.7c0,0.2-0.1,0.4-0.1,0.6c0,0.2-0.1,0.4-0.1,0.7c0,0.2-0.1,0.4-0.1,0.6c0,0.2-0.1,0.4-0.1,0.6
		c0,0.2-0.1,0.5-0.1,0.7c0,0.2-0.1,0.3-0.1,0.5c0,0.2-0.1,0.5-0.1,0.7c0,0.2-0.1,0.4-0.1,0.7c0,0.2-0.1,0.4-0.1,0.6
		C47,71.4,47,71.7,46.9,72c0,0.1,0,0.2-0.1,0.3c0,0.2-0.1,0.5-0.1,0.7c-0.1,0.6-0.2,1.2-0.3,1.7c0,0.1,0,0.1,0,0.2
		c-0.1,0.7-0.2,1.5-0.4,2.2c0,0.1,0,0.3-0.1,0.4c-0.1,0.3-0.1,0.6-0.2,0.9c0,0.1,0,0.2-0.1,0.3c0,0.3-0.1,0.6-0.1,0.9
		c0,0.2-0.1,0.3-0.1,0.5c0,0.2-0.1,0.4-0.1,0.6c0,0.2-0.1,0.5-0.1,0.7c0,0.2-0.1,0.5-0.1,0.7c0,0.2-0.1,0.4-0.1,0.6
		c0,0.2-0.1,0.4-0.1,0.6c0,0.3-0.1,0.5-0.1,0.8c0,0.2-0.1,0.4-0.1,0.6c0,0.2-0.1,0.4-0.1,0.5c0,0.3-0.1,0.6-0.1,0.9
		c0,0.1,0,0.3-0.1,0.4c0,0.3-0.1,0.5-0.1,0.8c0,0.2-0.1,0.5-0.1,0.7c0,0.2-0.1,0.4-0.1,0.6c0,0.2-0.1,0.5-0.1,0.7
		c0,0.2-0.1,0.4-0.1,0.6c0,0.1,0,0.3-0.1,0.4c0,0.3-0.1,0.6-0.1,0.9c-0.1,0.6-0.2,1.2-0.3,1.7c-0.1,0.6-0.2,1.1-0.3,1.7
		c0,0.1,0,0.1,0,0.2c-0.1,0.4-0.1,0.7-0.2,1.1c0,0,0,0.1,0,0.1c-0.1,0.3-0.1,0.6-0.2,1c0,0.1,0,0.2,0,0.2c0,0.3-0.1,0.6-0.1,0.9
		c0,0.1,0,0.2,0,0.3c0,0.3-0.1,0.5-0.1,0.8c0,0.2-0.1,0.3-0.1,0.5c0,0.2-0.1,0.3-0.1,0.5c0,0.2-0.1,0.5-0.1,0.7
		c0,0.2-0.1,0.4-0.1,0.6c0,0.1,0,0.2-0.1,0.3c0,0.3-0.1,0.6-0.1,0.8c0,0.1,0,0.2,0,0.2c0,0.3-0.1,0.6-0.1,0.8c0,0.1,0,0.2,0,0.3
		c0,0.2-0.1,0.5-0.1,0.7c0,0.2-0.1,0.4-0.1,0.6c0,0.1,0,0.2-0.1,0.4c-0.1,0.3-0.1,0.6-0.2,0.9c0,0,0,0,0,0.1c0,0.2-0.1,0.5-0.1,0.7
		c0,0.2-0.1,0.3-0.1,0.5c0,0.1,0,0.2-0.1,0.3c0,0.2-0.1,0.4-0.1,0.6c0,0.1,0,0.2,0,0.3c-0.1,0.6-0.2,1.1-0.3,1.6l8.3,1.9
		C52.1,92,58.5,53.4,61.8,36.9z"/>
	<path class="st3" d="M150.1,104.1l-2.2-9.2l0,0l0,0l0,0l-9.7-40.3c-1.3,6.8-2.7,13.9-3.9,21l9.6,40l0,0l8.5-1.9L150.1,104.1z"/>
	<path class="st3" d="M99.9,10.8c0-0.1,0-0.1,0-0.2c0,0,0,0,0.1,0c0.1,0,0.1,0,0.2,0c0.2,0,0.4,0,0.7,0c0,0,0.1,0,0.1,0
		c0.2,0,0.5,0,0.7,0c0,0,0,0,0.1,0c6.2-0.3,11.5-1.5,13.8-3.3c0,0,0,0,0.1,0c0.1-0.1,0.1-0.1,0.2-0.2c0,0,0,0,0.1-0.1
		c0.1-0.1,0.1-0.1,0.2-0.2c0,0,0,0,0,0c0.1-0.1,0.2-0.2,0.3-0.4c0.1-0.1,0.2-0.2,0.3-0.3c-0.6,4.5-3.7,22.8-17.5,29.5
		c-3.8-1.9-6.8-4.6-9.1-7.7C96,24.5,99.9,18.1,99.9,10.8z"/>
	<path class="st4" d="M167.8,124c0,0-0.9-5.4-2.2-13.6c0,0,0,0,0,0c-2.6-16-7-42.6-10.3-60.3c-0.3-1.7-1.9-2.8-3.6-2.5
		c-1.7,0.3-2.8,1.9-2.5,3.6c3,16.6,7.1,41.2,9.8,57.3l-15.7,3.5l-8.7-36.3c0-0.2,0.1-0.3,0.1-0.5c0.1-0.4,0.1-0.7,0.2-1.1
		c0.2-1,0.3-2,0.5-3c0.1-0.3,0.1-0.6,0.2-0.9c0.1-0.6,0.2-1.1,0.3-1.7c0.1-0.3,0.1-0.6,0.2-0.9c0.1-0.6,0.2-1.1,0.3-1.7
		c0.1-0.3,0.1-0.5,0.2-0.8c0.4-1.8,0.7-3.6,1.1-5.3c0.1-0.4,0.2-0.8,0.2-1.2c0.1-0.4,0.2-0.8,0.3-1.2c0.1-0.5,0.2-1,0.3-1.5
		c0.1-0.3,0.1-0.6,0.2-0.9c0.2-0.8,0.3-1.5,0.5-2.3c0,0,0-0.1,0-0.1c0-0.2,0.1-0.5,0.1-0.7c0.1-0.4,0.2-0.8,0.3-1.2
		c0.1-0.4,0.2-0.8,0.2-1.2c0.1-0.3,0.1-0.5,0.2-0.8c0.1-0.4,0.2-0.9,0.3-1.3c0-0.2,0.1-0.3,0.1-0.5c0.1-0.5,0.2-1,0.3-1.5
		c0-0.1,0-0.1,0-0.2c1.4-7,2.6-13.1,3.1-18.2c1,2.8,2.1,6.2,3,10.4c0.2,1,0.4,2.1,0.7,3.3c0.3,1.7,2,2.8,3.7,2.5
		c1.7-0.3,2.8-2,2.5-3.7c-0.3-1.3-0.5-2.4-0.7-3.4c-3.6-17-9.4-22.9-11.4-24.5c-0.7-0.8-1.4-1.5-2.4-2c-13.5-7.2-17.4-7.8-21.4-7.8
		c-0.1,0-0.2,0-0.3,0c0,0-0.1,0-0.1,0c-0.1,0-0.1,0-0.2,0c-0.1,0-0.1,0-0.2,0c-0.1,0-0.1,0-0.2,0c-0.1,0-0.1,0-0.2,0.1
		c0,0-0.1,0-0.1,0.1c-0.1,0-0.1,0.1-0.2,0.1c0,0-0.1,0-0.1,0.1c-0.1,0-0.1,0.1-0.2,0.1c0,0-0.1,0-0.1,0.1c-0.1,0-0.1,0.1-0.2,0.2
		c0,0-0.1,0-0.1,0.1c-0.1,0.1-0.1,0.1-0.2,0.2c0,0,0,0-0.1,0.1c0,0,0,0,0,0c0,0,0,0,0,0c0,0,0,0,0,0c-0.1,0.1-0.2,0.2-0.2,0.3
		c0,0,0,0.1-0.1,0.1c-0.1,0.1-0.1,0.2-0.2,0.4c0,0,0,0,0,0c-0.1,0.1-0.1,0.2-0.1,0.4c0,0,0,0.1,0,0.1c0,0.1-0.1,0.3-0.1,0.4
		c0,0,0,0,0,0c0,0,0,0-0.1,0c-0.1,0-0.1,0.1-0.2,0.1c0,0-0.1,0-0.1,0.1c-0.1,0-0.2,0.1-0.2,0.1c0,0-0.1,0-0.1,0.1
		c-0.1,0-0.2,0.1-0.3,0.1c-0.1,0-0.1,0-0.2,0.1c-0.1,0-0.2,0.1-0.4,0.1c-0.1,0-0.1,0-0.2,0.1c-0.1,0.1-0.3,0.1-0.4,0.2
		c-0.1,0-0.1,0-0.2,0.1c-0.2,0.1-0.4,0.1-0.5,0.2c-0.1,0-0.1,0-0.2,0c-0.2,0.1-0.4,0.1-0.6,0.2c-0.1,0-0.1,0-0.2,0
		c-0.2,0.1-0.5,0.1-0.7,0.2c-0.1,0-0.1,0-0.2,0c-0.3,0.1-0.5,0.1-0.8,0.2c-0.1,0-0.1,0-0.2,0c-0.3,0.1-0.6,0.1-0.9,0.2
		c-0.1,0-0.1,0-0.2,0c-0.3,0-0.6,0.1-0.9,0.1c-0.1,0-0.1,0-0.2,0c-0.3,0-0.7,0.1-1,0.1c-0.1,0-0.1,0-0.2,0c-0.4,0-0.7,0.1-1.1,0.1
		c-0.1,0-0.1,0-0.2,0c-0.4,0-0.8,0.1-1.2,0.1c0,0-0.1,0-0.1,0c-0.4,0-0.9,0-1.3,0.1c0,0-0.1,0-0.1,0c-0.5,0-0.9,0-1.4,0
		c-0.5,0-1,0-1.4,0c0,0-0.1,0-0.1,0c-0.4,0-0.9,0-1.3-0.1c0,0-0.1,0-0.1,0c-0.4,0-0.8,0-1.2-0.1c0,0-0.1,0-0.1,0
		c-0.4,0-0.8-0.1-1.1-0.1c-0.1,0-0.1,0-0.2,0c-0.4,0-0.7-0.1-1-0.1c-0.1,0-0.1,0-0.2,0c-0.3,0-0.6-0.1-1-0.1c-0.1,0-0.1,0-0.2,0
		c-0.3,0-0.6-0.1-0.9-0.2c-0.1,0-0.1,0-0.2,0c-0.3-0.1-0.5-0.1-0.8-0.2c-0.1,0-0.1,0-0.1,0c-0.3-0.1-0.5-0.1-0.7-0.2
		c0,0-0.1,0-0.1,0c-0.2-0.1-0.5-0.1-0.7-0.2c0,0-0.1,0-0.1,0c-0.2-0.1-0.4-0.1-0.6-0.2c0,0-0.1,0-0.1,0c-0.2-0.1-0.3-0.1-0.5-0.2
		c0,0-0.1,0-0.1-0.1c-0.1-0.1-0.3-0.1-0.4-0.2c0,0-0.1,0-0.1-0.1c-0.1-0.1-0.2-0.1-0.3-0.2c0,0-0.1,0-0.1-0.1
		c-0.1-0.1-0.2-0.1-0.3-0.2c0,0-0.1,0-0.1-0.1c-0.1,0-0.1-0.1-0.2-0.1c0,0,0,0-0.1,0c0,0,0,0,0,0c0-0.1,0-0.3-0.1-0.4
		c0,0,0-0.1,0-0.1c0-0.1-0.1-0.3-0.1-0.4c0,0,0,0,0,0c-0.1-0.1-0.1-0.3-0.2-0.4c0,0,0-0.1-0.1-0.1c-0.1-0.1-0.2-0.2-0.2-0.3
		c0,0,0,0,0,0c0,0,0,0,0,0c0,0,0,0,0,0c0,0,0,0-0.1-0.1C84.7,3,84.6,3,84.6,2.9c0,0-0.1-0.1-0.1-0.1c0,0-0.1-0.1-0.1-0.1
		c0,0-0.1-0.1-0.1-0.1c0,0-0.1-0.1-0.1-0.1c-0.1,0-0.1-0.1-0.2-0.1c0,0-0.1,0-0.1-0.1c-0.1,0-0.1,0-0.2-0.1c0,0-0.1,0-0.1,0
		c-0.1,0-0.1,0-0.2-0.1c0,0-0.1,0-0.1,0c-0.1,0-0.2,0-0.2,0c0,0-0.1,0-0.1,0c-0.1,0-0.2,0-0.3,0c-4,0-7.9,0.6-21.4,7.8
		c-0.9,0.5-1.7,1.2-2.4,2c-2,1.6-7.8,7.5-11.4,24.5c-2.9,13.5-9.5,53.1-12.9,74.1c0,0,0,0,0,0c-1.3,8.2-2.2,13.6-2.2,13.6
		c-0.3,1.6,0.8,3.2,2.4,3.6l20.7,4.6c0.2,0.1,0.5,0.1,0.7,0.1c0.2,0,0.4,0,0.5,0c1.2-0.2,2.2-1.1,2.5-2.4l8.9-37
		c1,11.2,0.9,22-1.4,31.3c-10.3,40.6-0.4,72.5,0.1,73.9c0.4,1.3,1.6,2.2,3,2.2h10.3c1.7,0,3.1-1.4,3.1-3.1s-1.4-3.1-3.1-3.1h-7.9
		c-2-7.8-7.7-35.3,0.7-68.2c3.8-15,2.2-33-0.7-50.4c0,0,0,0,0-0.1c0-0.1,0-0.3-0.1-0.4c-0.1-0.7-0.2-1.4-0.4-2.1
		c-0.1-0.3-0.1-0.6-0.2-0.9c-0.1-0.8-0.3-1.6-0.4-2.4c-0.1-0.4-0.2-0.8-0.2-1.2c-0.1-0.5-0.2-1-0.3-1.5c-0.1-0.4-0.2-0.9-0.3-1.3
		c-0.1-0.5-0.2-1-0.3-1.4c-0.1-0.4-0.2-0.8-0.2-1.2c-0.2-0.8-0.3-1.6-0.5-2.4c-0.1-0.3-0.1-0.7-0.2-1c-0.1-0.6-0.2-1.2-0.4-1.7
		c-0.1-0.3-0.1-0.7-0.2-1c-0.1-0.6-0.3-1.3-0.4-1.9c-0.1-0.3-0.1-0.5-0.2-0.8c-0.2-0.8-0.3-1.7-0.5-2.5c0,0,0,0,0-0.1
		c-0.1-0.3-0.1-0.6-0.2-0.9c0-0.2-0.1-0.4-0.1-0.5C65,41.3,63.2,32.6,62.6,26c0,0,0,0,0-0.1c0-0.2,0-0.4-0.1-0.6
		c-0.4-4.9,0-7.4,0.5-8.7c0.1-0.3,0.3-0.5,0.4-0.8c0,0,0,0,0,0c0.2-0.2,0.4-0.4,0.5-0.5c9-4.8,13.2-6.3,15.7-6.8
		c1.2,6.8,5.3,23.3,18.9,30c0.4,0.2,0.9,0.3,1.4,0.3c0.5,0,0.9-0.1,1.4-0.3c13.6-6.7,17.7-23.2,18.9-30c2.5,0.5,6.7,2,15.7,6.8
		c0.1,0.1,0.3,0.2,0.5,0.5c0,0,0,0,0,0c0.2,0.2,0.3,0.5,0.4,0.8c0.5,1.3,0.9,3.8,0.5,8.7c0,0.2,0,0.4-0.1,0.6c0,0,0,0,0,0.1
		c-0.6,6.6-2.4,15.3-4.3,24.1c0,0.2-0.1,0.4-0.1,0.5c-0.1,0.3-0.1,0.6-0.2,0.9c0,0,0,0,0,0.1c-0.2,0.8-0.3,1.6-0.5,2.5
		c-0.1,0.2-0.1,0.5-0.2,0.7c-0.1,0.6-0.3,1.3-0.4,1.9c-0.1,0.3-0.1,0.7-0.2,1c-0.1,0.6-0.2,1.2-0.4,1.7c-0.1,0.3-0.1,0.7-0.2,1
		c-0.2,0.8-0.3,1.6-0.5,2.4c-0.1,0.4-0.2,0.8-0.2,1.2c-0.1,0.5-0.2,1-0.3,1.4c-0.1,0.4-0.2,0.9-0.3,1.3c-0.1,0.5-0.2,1-0.3,1.5
		c-0.1,0.4-0.2,0.8-0.2,1.2c-0.2,0.8-0.3,1.7-0.5,2.5c0,0.3-0.1,0.5-0.1,0.8c-0.1,0.7-0.2,1.4-0.4,2.1c0,0.1,0,0.3-0.1,0.4
		c0,0,0,0,0,0.1c-2.9,17.3-4.5,35.4-0.7,50.4c8.3,32.9,2.6,60.5,0.7,68.2H90.7c-1.7,0-3.1,1.4-3.1,3.1s1.4,3.1,3.1,3.1h39.8
		c1.4,0,2.6-0.9,3-2.2c0.4-1.3,10.3-33.2,0.1-73.9c-2.4-9.3-2.5-20.1-1.4-31.3l5.7,23.6c0,0,0,0,0,0l3.2,13.3c0.3,1.4,1.6,2.4,3,2.4
		c0.2,0,0.5,0,0.7-0.1l20.7-4.6C167.1,127.2,168.1,125.7,167.8,124z M38.8,122.1c0.3-1.8,0.7-4.3,1.2-7.3l15.3,3.4l-1.7,7.2
		L38.8,122.1z M56.8,112.1L41,108.6c3.5-21.6,9.7-58.1,12.4-70.9c0.9-4.2,1.9-7.6,3-10.4c0.5,5.1,1.7,11.2,3.1,18.2
		c0,0.1,0,0.1,0,0.2c0.1,0.5,0.2,1,0.3,1.6c0,0.1,0.1,0.3,0.1,0.4c0.1,0.5,0.2,1,0.3,1.4c0,0.1,0.1,0.3,0.1,0.4
		c0.2,1.1,0.5,2.2,0.7,3.3c0.1,0.3,0.1,0.7,0.2,1c0.1,0.4,0.2,0.9,0.3,1.3c0.1,0.4,0.2,0.7,0.2,1.1c0.1,0.5,0.2,1,0.3,1.4
		c0.1,0.4,0.2,0.8,0.3,1.3c0.1,0.4,0.2,0.8,0.3,1.2c0.4,1.7,0.7,3.5,1.1,5.3c0.1,0.3,0.1,0.6,0.2,0.8c0.1,0.5,0.2,1.1,0.3,1.6
		c0.1,0.3,0.1,0.6,0.2,0.9c0.1,0.5,0.2,1.1,0.3,1.6c0.1,0.3,0.1,0.6,0.2,0.9c0.2,0.9,0.3,1.9,0.5,2.8c0.1,0.4,0.1,0.8,0.2,1.2
		c0,0.1,0,0.3,0.1,0.4L56.8,112.1z M100,32.2c-7.7-4.5-11.4-13.5-13.1-19.9c0.6,0.2,1.1,0.3,1.7,0.4c3.3,0.8,7.2,1.1,10.8,1.2
		c0.2,0,0.4,0,0.5,0c0.1,0,0.3,0,0.5,0c3.6,0,7.5-0.4,10.8-1.2c0.6-0.1,1.2-0.3,1.7-0.4C111.4,18.7,107.7,27.6,100,32.2z
		 M144.7,118.2l15.3-3.4c0.5,3.1,0.9,5.6,1.2,7.3l-14.8,3.3L144.7,118.2z"/>
</g>
</svg>
