<?xml version="1.0" encoding="utf-8"?>
<!-- Generator: Adobe Illustrator 21.0.0, SVG Export Plug-In . SVG Version: 6.00 Build 0)  -->
<svg version="1.1" id="Layer_1" xmlns="http://www.w3.org/2000/svg" xmlns:xlink="http://www.w3.org/1999/xlink" x="0px" y="0px"
	 viewBox="0 0 200 200" style="enable-background:new 0 0 200 200;" xml:space="preserve">
<style type="text/css">
	.st0{fill:#C2AEBD;}
	.st1{fill:#AD94A7;}
	.st2{fill:#F7F3F4;}
	.st3{fill:#54284E;}
	.st4{fill:#350734;}
</style>
<g>
	<path class="st0" d="M160.6,26.9c-14.1-5.2-30.3-12.2-30.3-12.2l-9-11.3H100h-0.5H78.3l-9,11.3c0,0-16.2,7-30.3,12.2
		c-17.2,6.3-17.2,17.2-17.2,17.2v129.7l23.5,7.7v15.4h11.1h11.1h10.9h21h0.5h43.5h10.7v-15.4l24-7.7v-45.2V95.8V85.5V65.8V44.1
		C178.2,44.1,178.2,33.5,160.6,26.9z"/>
	<polygon class="st1" points="78.3,3.4 121.2,3.4 117.3,20.9 82.2,20.9 	"/>
	<path class="st1" d="M97,97.4l-8.6-24.7c5.4-7.9,9.8-17.8,12.4-29.1c3.6-15.4,3.1-30.2-0.5-41.4h16.7c0.5,0,1,0.1,1.4,0.3L97,97.4z
		"/>
	<path class="st1" d="M114.5,19.7h-11.2c-0.2-6.4-1.2-12.3-2.9-17.5h16.7c0.5,0,0.9,0.1,1.3,0.3L114.5,19.7z"/>
	<path class="st0" d="M102.6,109.6L80,9.7c-0.9,0.1-1.8,0.5-2.4,1.3l-8,3.7l0,0c-0.2,0.1-16.4,7.1-30.3,12.2
		c-16.2,6-17.1,15.9-17.2,17.1c0,0.1,0,0.1,0,0.2v127.2c0,1.5,0.9,2.7,2.3,3.2l21.2,6.9v12c0,1.9,1.5,3.4,3.4,3.4h53.6V109.6z"/>
	<g>
		<polygon class="st2" points="178.2,173.8 154.7,181.5 154.7,164.5 178.2,156.5 		"/>
		<polyline class="st2" points="102.3,109.6 65.9,59.5 71.5,45.9 58,34.1 69.3,14.7 78.3,3.4 102.3,109.6 102.3,196.8 		"/>
		<polygon class="st2" points="141.6,34.1 130.3,14.7 121.2,3.4 99.8,98.6 101.1,104.4 133.7,59.5 128,45.9 		"/>
	</g>
	<path class="st3" d="M33.3,175.6v-8.5V48.4v-8.5c0-0.1,0-0.1,0-0.2c0-0.8,0.6-6.6,7.6-12c-15.3,6-16.2,15.6-16.3,16.7
		c0,0.1,0,0.1,0,0.2v127.2c0,1.5,0.9,2.7,2.3,3.2l6.7,2.2C33.5,176.8,33.3,176.2,33.3,175.6z"/>
	<polygon class="st2" points="21.8,173.8 45.3,181.5 45.3,164.5 21.8,156.5 	"/>
	<path class="st1" d="M27,175.1l6.7,2.2c-0.3-0.5-0.4-1-0.4-1.6v-8.5v-6.8l-8.6-2.9v14.5C24.7,173.3,25.6,174.6,27,175.1z"/>
	<path class="st4" d="M91.2,126.3h0.6c1.7,0,3.2-1.4,3.2-3.2c0-1.7-1.4-3.2-3.2-3.2h-0.6c-1.7,0-3.2,1.4-3.2,3.2
		C88,124.9,89.4,126.3,91.2,126.3z"/>
	<path class="st4" d="M91.2,149.2h0.6c1.7,0,3.2-1.4,3.2-3.2c0-1.7-1.4-3.2-3.2-3.2h-0.6c-1.7,0-3.2,1.4-3.2,3.2
		C88,147.8,89.4,149.2,91.2,149.2z"/>
	<path class="st4" d="M91.2,172.1h0.6c1.7,0,3.2-1.4,3.2-3.2s-1.4-3.2-3.2-3.2h-0.6c-1.7,0-3.2,1.4-3.2,3.2S89.4,172.1,91.2,172.1z"
		/>
	<path class="st4" d="M178.2,88.7c1.7,0,3.2-1.4,3.2-3.2V44.1c0-0.5-0.2-12.9-19.7-20.1c-12.2-4.5-26.1-10.4-29.4-11.8l-8.5-10.7
		c-0.5-0.6-1.1-1-1.8-1.1c0,0,0,0-0.1,0c-0.1,0-0.2,0-0.3,0c0,0-0.1,0-0.1,0c0,0-0.1,0-0.1,0h0H78.3c0,0-0.1,0-0.1,0
		c0,0-0.1,0-0.1,0c-0.1,0-0.2,0-0.3,0c0,0-0.1,0-0.1,0c-0.1,0-0.3,0.1-0.4,0.1c0,0,0,0,0,0c-0.1,0-0.2,0.1-0.4,0.2
		c0,0-0.1,0-0.1,0.1c-0.1,0-0.2,0.1-0.2,0.1c0,0-0.1,0.1-0.1,0.1c-0.1,0.1-0.1,0.1-0.2,0.2c0,0-0.1,0.1-0.1,0.1
		c-0.1,0.1-0.2,0.2-0.3,0.3l-8.5,10.7C64,13.5,50.1,19.5,37.9,24c-19,7-19.2,19.6-19.2,20.1v112.4v17.3c0,1.4,0.9,2.6,2.2,3l21.3,7
		v7.7v5.4c0,1.7,1.4,3.2,3.2,3.2h22.3c1.7,0,3.2-1.4,3.2-3.2s-1.4-3.2-3.2-3.2H48.5v-2.3v-9.9v-17V65.8c0-1.7-1.4-3.2-3.2-3.2
		c-1.7,0-3.2,1.4-3.2,3.2v94.3L25,154.2V44.1c0-0.5,0.6-8.9,15.1-14.3c7.5-2.8,15.7-6.1,21.7-8.6l-6.6,11.3c-0.8,1.3-0.5,3,0.7,4
		l11.8,10.3L63,58.2l0,0c0,0,0,0,0,0l0,0c0,0,0,0,0,0c0,0.1-0.1,0.2-0.1,0.3c0,0,0,0.1,0,0.1c0,0.1,0,0.2-0.1,0.3c0,0,0,0.1,0,0.1
		c0,0.1,0,0.2,0,0.3c0,0,0,0,0,0c0,0.1,0,0.3,0,0.4c0,0,0,0,0,0.1c0,0.1,0,0.2,0.1,0.3c0,0,0,0.1,0,0.1c0,0.1,0.1,0.2,0.1,0.3
		c0,0,0,0,0,0.1c0,0.1,0.1,0.2,0.2,0.3c0,0,0,0,0,0.1c0,0.1,0.1,0.2,0.2,0.3c0,0,0,0,0,0l35.8,49.3v83H78.5c-1.7,0-3.2,1.4-3.2,3.2
		s1.4,3.2,3.2,3.2h75.7c1.7,0,3.2-1.4,3.2-3.2v-7.2v-5.7l21.8-7.1c0.1,0,0.2-0.1,0.3-0.1c0.1,0,0.1-0.1,0.2-0.1
		c0.1,0,0.2-0.1,0.2-0.1c0.1,0,0.1-0.1,0.2-0.1c0.1-0.1,0.1-0.1,0.2-0.2c0.1,0,0.1-0.1,0.2-0.1c0.1-0.1,0.1-0.1,0.2-0.2
		c0-0.1,0.1-0.1,0.1-0.2c0.1-0.1,0.1-0.2,0.1-0.2c0-0.1,0.1-0.1,0.1-0.2c0-0.1,0.1-0.2,0.1-0.3c0-0.1,0.1-0.1,0.1-0.2
		c0-0.1,0.1-0.2,0.1-0.3c0-0.1,0-0.1,0-0.2c0-0.2,0-0.3,0-0.5v-17.3V95.8c0-1.7-1.4-3.2-3.2-3.2s-3.2,1.4-3.2,3.2v58.4l-17.6,6V65.8
		c0-1.7-1.4-3.2-3.2-3.2c-1.7,0-3.2,1.4-3.2,3.2v115.7v8.1v4.1h-45.7v-84c0-0.3,0-0.5-0.1-0.8l-0.9-3.8l31.7-43.6
		c0.7-0.9,0.9-2.1,0.4-3.2l-0.3-0.6l-4.5-10.8l11.8-10.3c1.1-1,1.4-2.7,0.7-4l-6.6-11.3c6,2.5,14.2,5.8,21.7,8.6
		c14.9,5.5,15.5,13.7,15.6,14.3v41.4C175,87.3,176.4,88.7,178.2,88.7z M42.2,166.7v10.4L25,171.5v-10.6L42.2,166.7z M175,160.9v10.6
		l-17.2,5.5v-10.3L175,160.9z M130.1,59l-26.3,36.3l14.5-64.2L130.1,59z M82.3,6.6h35l-2.5,11.2h-30L82.3,6.6z M62,33.5l9.9-17
		l4.8-6l0.2,0.9l2.1,9.2l-8.6,20.1L62,33.5z M69.5,59l11.8-27.9l14.5,64.2L69.5,59z M86.2,24.1h27.2L99.8,84.2L86.2,24.1z
		 M129.1,40.7l-8.6-20.1l2.3-10.1l4.8,6l9.9,17L129.1,40.7z"/>
</g>
</svg>
